<mxfile host="app.diagrams.net" modified="2022-11-06T19:09:27.209Z" agent="5.0 (X11)" etag="q7T6CNsR0jmT9FTsttCd" version="20.5.2" type="github">
  <diagram id="mG1HMk_P3Qzkao30jtQO" name="Page-1">
    <mxGraphModel dx="782" dy="791" grid="1" gridSize="10" guides="1" tooltips="1" connect="1" arrows="1" fold="1" page="1" pageScale="1" pageWidth="1169" pageHeight="827" math="0" shadow="0">
      <root>
        <mxCell id="0" />
        <mxCell id="1" parent="0" />
        <mxCell id="jDjHbBXsktSoRNRUFQ-b-1" style="edgeStyle=orthogonalEdgeStyle;orthogonalLoop=1;jettySize=auto;html=1;entryX=0;entryY=0.5;entryDx=0;entryDy=0;endArrow=none;endFill=0;curved=1;" parent="1" source="5CA6VPBxyKq3rkaRyW6T-1" target="5CA6VPBxyKq3rkaRyW6T-2" edge="1">
          <mxGeometry relative="1" as="geometry" />
        </mxCell>
        <mxCell id="jDjHbBXsktSoRNRUFQ-b-14" style="edgeStyle=orthogonalEdgeStyle;curved=1;orthogonalLoop=1;jettySize=auto;html=1;entryX=0;entryY=0.5;entryDx=0;entryDy=0;startArrow=none;startFill=0;endArrow=none;endFill=0;" parent="1" source="5CA6VPBxyKq3rkaRyW6T-1" target="5CA6VPBxyKq3rkaRyW6T-3" edge="1">
          <mxGeometry relative="1" as="geometry" />
        </mxCell>
        <mxCell id="jDjHbBXsktSoRNRUFQ-b-15" style="edgeStyle=orthogonalEdgeStyle;curved=1;orthogonalLoop=1;jettySize=auto;html=1;entryX=0;entryY=0.5;entryDx=0;entryDy=0;startArrow=none;startFill=0;endArrow=none;endFill=0;" parent="1" source="5CA6VPBxyKq3rkaRyW6T-1" target="5CA6VPBxyKq3rkaRyW6T-4" edge="1">
          <mxGeometry relative="1" as="geometry" />
        </mxCell>
        <mxCell id="jDjHbBXsktSoRNRUFQ-b-32" style="edgeStyle=orthogonalEdgeStyle;curved=1;orthogonalLoop=1;jettySize=auto;html=1;entryX=0;entryY=0.5;entryDx=0;entryDy=0;startArrow=none;startFill=0;endArrow=none;endFill=0;endSize=4;" parent="1" source="5CA6VPBxyKq3rkaRyW6T-1" target="5CA6VPBxyKq3rkaRyW6T-5" edge="1">
          <mxGeometry relative="1" as="geometry" />
        </mxCell>
        <mxCell id="jDjHbBXsktSoRNRUFQ-b-33" style="edgeStyle=orthogonalEdgeStyle;curved=1;orthogonalLoop=1;jettySize=auto;html=1;entryX=0;entryY=0.5;entryDx=0;entryDy=0;startArrow=none;startFill=0;endArrow=none;endFill=0;endSize=4;" parent="1" source="5CA6VPBxyKq3rkaRyW6T-1" target="5CA6VPBxyKq3rkaRyW6T-6" edge="1">
          <mxGeometry relative="1" as="geometry" />
        </mxCell>
        <mxCell id="5CA6VPBxyKq3rkaRyW6T-1" value="&lt;div&gt;Utente&lt;/div&gt;&lt;div&gt;Autenticato&lt;br&gt;&lt;/div&gt;" style="shape=umlActor;verticalLabelPosition=bottom;verticalAlign=top;html=1;" parent="1" vertex="1">
          <mxGeometry x="130" y="384" width="30" height="60" as="geometry" />
        </mxCell>
        <mxCell id="sF4jWUzwzZxr8Itc68vX-2" style="edgeStyle=orthogonalEdgeStyle;rounded=0;orthogonalLoop=1;jettySize=auto;html=1;exitX=0.997;exitY=0.437;exitDx=0;exitDy=0;entryX=0.5;entryY=0;entryDx=0;entryDy=0;entryPerimeter=0;endArrow=none;endFill=0;curved=1;exitPerimeter=0;" parent="1" source="5CA6VPBxyKq3rkaRyW6T-2" target="sF4jWUzwzZxr8Itc68vX-1" edge="1">
          <mxGeometry relative="1" as="geometry">
            <Array as="points">
              <mxPoint x="905" y="171" />
            </Array>
          </mxGeometry>
        </mxCell>
        <mxCell id="5CA6VPBxyKq3rkaRyW6T-2" value="Cronologia" style="ellipse;whiteSpace=wrap;html=1;" parent="1" vertex="1">
          <mxGeometry x="350" y="140" width="140" height="70" as="geometry" />
        </mxCell>
        <mxCell id="jDjHbBXsktSoRNRUFQ-b-6" style="edgeStyle=orthogonalEdgeStyle;curved=1;orthogonalLoop=1;jettySize=auto;html=1;exitX=1;exitY=0.5;exitDx=0;exitDy=0;entryX=0;entryY=0.5;entryDx=0;entryDy=0;dashed=1;endArrow=blockThin;endFill=1;" parent="1" source="5CA6VPBxyKq3rkaRyW6T-3" target="jDjHbBXsktSoRNRUFQ-b-4" edge="1">
          <mxGeometry relative="1" as="geometry" />
        </mxCell>
        <mxCell id="jDjHbBXsktSoRNRUFQ-b-7" value="include" style="edgeLabel;html=1;align=center;verticalAlign=middle;resizable=0;points=[];labelBackgroundColor=default;" parent="jDjHbBXsktSoRNRUFQ-b-6" vertex="1" connectable="0">
          <mxGeometry x="0.1665" y="-2" relative="1" as="geometry">
            <mxPoint y="8" as="offset" />
          </mxGeometry>
        </mxCell>
        <mxCell id="jDjHbBXsktSoRNRUFQ-b-8" style="edgeStyle=orthogonalEdgeStyle;curved=1;orthogonalLoop=1;jettySize=auto;html=1;exitX=1;exitY=0.5;exitDx=0;exitDy=0;entryX=0;entryY=0.5;entryDx=0;entryDy=0;dashed=1;endArrow=blockThin;endFill=1;" parent="1" source="5CA6VPBxyKq3rkaRyW6T-3" target="jDjHbBXsktSoRNRUFQ-b-5" edge="1">
          <mxGeometry relative="1" as="geometry" />
        </mxCell>
        <mxCell id="jDjHbBXsktSoRNRUFQ-b-9" value="include" style="edgeLabel;html=1;align=center;verticalAlign=middle;resizable=0;points=[];" parent="jDjHbBXsktSoRNRUFQ-b-8" vertex="1" connectable="0">
          <mxGeometry x="0.1375" relative="1" as="geometry">
            <mxPoint y="-1" as="offset" />
          </mxGeometry>
        </mxCell>
        <mxCell id="5CA6VPBxyKq3rkaRyW6T-3" value="Ricerca" style="ellipse;whiteSpace=wrap;html=1;" parent="1" vertex="1">
          <mxGeometry x="350" y="230" width="140" height="70" as="geometry" />
        </mxCell>
        <mxCell id="jDjHbBXsktSoRNRUFQ-b-2" style="edgeStyle=orthogonalEdgeStyle;curved=1;orthogonalLoop=1;jettySize=auto;html=1;exitX=0.5;exitY=1;exitDx=0;exitDy=0;entryX=0.5;entryY=0;entryDx=0;entryDy=0;endArrow=blockThin;endFill=1;dashed=1;" parent="1" source="5CA6VPBxyKq3rkaRyW6T-4" target="5CA6VPBxyKq3rkaRyW6T-5" edge="1">
          <mxGeometry relative="1" as="geometry" />
        </mxCell>
        <mxCell id="jDjHbBXsktSoRNRUFQ-b-3" value="include" style="edgeLabel;html=1;align=center;verticalAlign=middle;resizable=0;points=[];labelBackgroundColor=none;" parent="jDjHbBXsktSoRNRUFQ-b-2" vertex="1" connectable="0">
          <mxGeometry x="-0.1617" relative="1" as="geometry">
            <mxPoint x="-20" as="offset" />
          </mxGeometry>
        </mxCell>
        <mxCell id="jDjHbBXsktSoRNRUFQ-b-12" style="edgeStyle=orthogonalEdgeStyle;curved=1;orthogonalLoop=1;jettySize=auto;html=1;exitX=1;exitY=0.5;exitDx=0;exitDy=0;entryX=0;entryY=0.5;entryDx=0;entryDy=0;dashed=1;endArrow=none;endFill=0;startArrow=blockThin;startFill=1;" parent="1" source="5CA6VPBxyKq3rkaRyW6T-4" target="jDjHbBXsktSoRNRUFQ-b-10" edge="1">
          <mxGeometry relative="1" as="geometry" />
        </mxCell>
        <mxCell id="jDjHbBXsktSoRNRUFQ-b-16" value="extends" style="edgeLabel;html=1;align=center;verticalAlign=middle;resizable=0;points=[];" parent="jDjHbBXsktSoRNRUFQ-b-12" vertex="1" connectable="0">
          <mxGeometry x="0.218" y="-2" relative="1" as="geometry">
            <mxPoint y="9" as="offset" />
          </mxGeometry>
        </mxCell>
        <mxCell id="jDjHbBXsktSoRNRUFQ-b-13" style="edgeStyle=orthogonalEdgeStyle;curved=1;orthogonalLoop=1;jettySize=auto;html=1;exitX=1;exitY=0.5;exitDx=0;exitDy=0;entryX=0;entryY=0.5;entryDx=0;entryDy=0;dashed=1;endArrow=none;endFill=0;startArrow=blockThin;startFill=1;" parent="1" source="5CA6VPBxyKq3rkaRyW6T-4" target="jDjHbBXsktSoRNRUFQ-b-11" edge="1">
          <mxGeometry relative="1" as="geometry" />
        </mxCell>
        <mxCell id="jDjHbBXsktSoRNRUFQ-b-17" value="extends" style="edgeLabel;html=1;align=center;verticalAlign=middle;resizable=0;points=[];" parent="jDjHbBXsktSoRNRUFQ-b-13" vertex="1" connectable="0">
          <mxGeometry x="-0.1005" y="-1" relative="1" as="geometry">
            <mxPoint as="offset" />
          </mxGeometry>
        </mxCell>
        <mxCell id="5CA6VPBxyKq3rkaRyW6T-4" value="Riproduzione" style="ellipse;whiteSpace=wrap;html=1;" parent="1" vertex="1">
          <mxGeometry x="350" y="400" width="140" height="70" as="geometry" />
        </mxCell>
        <mxCell id="5CA6VPBxyKq3rkaRyW6T-5" value="Gestione Coda" style="ellipse;whiteSpace=wrap;html=1;" parent="1" vertex="1">
          <mxGeometry x="350" y="493.5" width="140" height="70" as="geometry" />
        </mxCell>
        <mxCell id="5CA6VPBxyKq3rkaRyW6T-6" value="Gestione Libreria" style="ellipse;whiteSpace=wrap;html=1;" parent="1" vertex="1">
          <mxGeometry x="350" y="590" width="140" height="70" as="geometry" />
        </mxCell>
        <mxCell id="jDjHbBXsktSoRNRUFQ-b-4" value="Ricerca Releases" style="ellipse;whiteSpace=wrap;html=1;" parent="1" vertex="1">
          <mxGeometry x="540" y="180" width="140" height="70" as="geometry" />
        </mxCell>
        <mxCell id="jDjHbBXsktSoRNRUFQ-b-5" value="Ricerca Playlists" style="ellipse;whiteSpace=wrap;html=1;" parent="1" vertex="1">
          <mxGeometry x="540" y="270" width="140" height="70" as="geometry" />
        </mxCell>
        <mxCell id="jDjHbBXsktSoRNRUFQ-b-10" value="Riproduci Release" style="ellipse;whiteSpace=wrap;html=1;" parent="1" vertex="1">
          <mxGeometry x="540" y="360" width="140" height="70" as="geometry" />
        </mxCell>
        <mxCell id="jDjHbBXsktSoRNRUFQ-b-11" value="Riproduci Playlist" style="ellipse;whiteSpace=wrap;html=1;" parent="1" vertex="1">
          <mxGeometry x="540" y="450" width="140" height="70" as="geometry" />
        </mxCell>
        <mxCell id="jDjHbBXsktSoRNRUFQ-b-24" style="edgeStyle=orthogonalEdgeStyle;curved=1;orthogonalLoop=1;jettySize=auto;html=1;exitX=1;exitY=0.5;exitDx=0;exitDy=0;entryX=0;entryY=0.5;entryDx=0;entryDy=0;dashed=1;endArrow=blockThin;endFill=1;" parent="1" target="jDjHbBXsktSoRNRUFQ-b-28" edge="1">
          <mxGeometry relative="1" as="geometry">
            <mxPoint x="490" y="625" as="sourcePoint" />
          </mxGeometry>
        </mxCell>
        <mxCell id="jDjHbBXsktSoRNRUFQ-b-25" value="include" style="edgeLabel;html=1;align=center;verticalAlign=middle;resizable=0;points=[];labelBackgroundColor=default;" parent="jDjHbBXsktSoRNRUFQ-b-24" vertex="1" connectable="0">
          <mxGeometry x="0.1665" y="-2" relative="1" as="geometry">
            <mxPoint y="8" as="offset" />
          </mxGeometry>
        </mxCell>
        <mxCell id="jDjHbBXsktSoRNRUFQ-b-26" style="edgeStyle=orthogonalEdgeStyle;curved=1;orthogonalLoop=1;jettySize=auto;html=1;exitX=1;exitY=0.5;exitDx=0;exitDy=0;entryX=0;entryY=0.5;entryDx=0;entryDy=0;dashed=1;endArrow=blockThin;endFill=1;" parent="1" target="jDjHbBXsktSoRNRUFQ-b-29" edge="1">
          <mxGeometry relative="1" as="geometry">
            <mxPoint x="490" y="625" as="sourcePoint" />
          </mxGeometry>
        </mxCell>
        <mxCell id="jDjHbBXsktSoRNRUFQ-b-27" value="include" style="edgeLabel;html=1;align=center;verticalAlign=middle;resizable=0;points=[];" parent="jDjHbBXsktSoRNRUFQ-b-26" vertex="1" connectable="0">
          <mxGeometry x="0.1375" relative="1" as="geometry">
            <mxPoint y="-1" as="offset" />
          </mxGeometry>
        </mxCell>
        <mxCell id="jDjHbBXsktSoRNRUFQ-b-28" value="Gestione Playlist" style="ellipse;whiteSpace=wrap;html=1;" parent="1" vertex="1">
          <mxGeometry x="540" y="590" width="140" height="70" as="geometry" />
        </mxCell>
        <mxCell id="jDjHbBXsktSoRNRUFQ-b-30" style="edgeStyle=orthogonalEdgeStyle;curved=1;orthogonalLoop=1;jettySize=auto;html=1;exitX=0.5;exitY=0;exitDx=0;exitDy=0;entryX=0.5;entryY=1;entryDx=0;entryDy=0;startArrow=none;startFill=0;endArrow=blockThin;endFill=1;dashed=1;endSize=4;" parent="1" source="jDjHbBXsktSoRNRUFQ-b-29" target="jDjHbBXsktSoRNRUFQ-b-28" edge="1">
          <mxGeometry relative="1" as="geometry" />
        </mxCell>
        <mxCell id="jDjHbBXsktSoRNRUFQ-b-31" value="extends" style="edgeLabel;html=1;align=center;verticalAlign=middle;resizable=0;points=[];" parent="jDjHbBXsktSoRNRUFQ-b-30" vertex="1" connectable="0">
          <mxGeometry x="-0.2865" relative="1" as="geometry">
            <mxPoint as="offset" />
          </mxGeometry>
        </mxCell>
        <mxCell id="jDjHbBXsktSoRNRUFQ-b-29" value="&lt;div&gt;Gestione &#39;Musica che&lt;/div&gt;&lt;div&gt;mi Piace&#39;&lt;br&gt;&lt;/div&gt;" style="ellipse;whiteSpace=wrap;html=1;" parent="1" vertex="1">
          <mxGeometry x="540" y="690" width="140" height="70" as="geometry" />
        </mxCell>
        <mxCell id="sF4jWUzwzZxr8Itc68vX-4" style="edgeStyle=orthogonalEdgeStyle;curved=1;rounded=0;orthogonalLoop=1;jettySize=auto;html=1;entryX=1;entryY=0.5;entryDx=0;entryDy=0;endArrow=none;endFill=0;" parent="1" source="sF4jWUzwzZxr8Itc68vX-1" target="jDjHbBXsktSoRNRUFQ-b-4" edge="1">
          <mxGeometry relative="1" as="geometry" />
        </mxCell>
        <mxCell id="sF4jWUzwzZxr8Itc68vX-5" style="edgeStyle=orthogonalEdgeStyle;curved=1;rounded=0;orthogonalLoop=1;jettySize=auto;html=1;entryX=1;entryY=0.5;entryDx=0;entryDy=0;endArrow=none;endFill=0;" parent="1" source="sF4jWUzwzZxr8Itc68vX-1" target="jDjHbBXsktSoRNRUFQ-b-5" edge="1">
          <mxGeometry relative="1" as="geometry" />
        </mxCell>
        <mxCell id="sF4jWUzwzZxr8Itc68vX-6" style="edgeStyle=orthogonalEdgeStyle;curved=1;rounded=0;orthogonalLoop=1;jettySize=auto;html=1;entryX=1;entryY=0;entryDx=0;entryDy=0;endArrow=none;endFill=0;" parent="1" source="sF4jWUzwzZxr8Itc68vX-1" target="5CA6VPBxyKq3rkaRyW6T-4" edge="1">
          <mxGeometry relative="1" as="geometry">
            <Array as="points">
              <mxPoint x="905" y="350" />
              <mxPoint x="470" y="350" />
            </Array>
          </mxGeometry>
        </mxCell>
        <mxCell id="ysxfTWo2axBwX6Ov6daC-1" style="edgeStyle=orthogonalEdgeStyle;rounded=0;orthogonalLoop=1;jettySize=auto;html=1;entryX=1;entryY=0;entryDx=0;entryDy=0;curved=1;endArrow=none;endFill=0;" edge="1" parent="1" source="sF4jWUzwzZxr8Itc68vX-1" target="5CA6VPBxyKq3rkaRyW6T-6">
          <mxGeometry relative="1" as="geometry">
            <Array as="points">
              <mxPoint x="905" y="530" />
              <mxPoint x="470" y="530" />
            </Array>
          </mxGeometry>
        </mxCell>
        <mxCell id="sF4jWUzwzZxr8Itc68vX-1" value="Database" style="shape=umlActor;verticalLabelPosition=bottom;verticalAlign=top;html=1;" parent="1" vertex="1">
          <mxGeometry x="890" y="235" width="30" height="60" as="geometry" />
        </mxCell>
        <mxCell id="ysxfTWo2axBwX6Ov6daC-4" style="edgeStyle=orthogonalEdgeStyle;curved=1;rounded=0;orthogonalLoop=1;jettySize=auto;html=1;entryX=1;entryY=1;entryDx=0;entryDy=0;endArrow=none;endFill=0;" edge="1" parent="1" source="ysxfTWo2axBwX6Ov6daC-2" target="5CA6VPBxyKq3rkaRyW6T-4">
          <mxGeometry relative="1" as="geometry" />
        </mxCell>
        <mxCell id="ysxfTWo2axBwX6Ov6daC-2" value="DRM" style="shape=umlActor;verticalLabelPosition=bottom;verticalAlign=top;html=1;" vertex="1" parent="1">
          <mxGeometry x="890" y="530" width="30" height="60" as="geometry" />
        </mxCell>
      </root>
    </mxGraphModel>
  </diagram>
</mxfile>
